<?xml version="1.0" encoding="utf-8"?>
<!-- Generator: Adobe Illustrator 25.0.1, SVG Export Plug-In . SVG Version: 6.00 Build 0)  -->
<svg version="1.1" id="Слой_1" xmlns="http://www.w3.org/2000/svg" xmlns:xlink="http://www.w3.org/1999/xlink" x="0px" y="0px"
	 viewBox="0 0 1768 728" style="enable-background:new 0 0 1768 728;" xml:space="preserve">
<style type="text/css">
	.st0{fill:#A41A17;}
</style>
<g>
	<path class="st0" d="M323.6,389.4l25.3-100h44.6l25.5,100h11.9v49.2h-18.7l-3-25.9h-76.1l-2.9,25.9h-18.6v-49.2H323.6z
		 M348.6,389.4h39.5l-17.3-76.7H366L348.6,389.4z"/>
	<path class="st0" d="M477.2,319.6c13.9,0,24.7,4.5,32.5,13.6c7.8,9.1,11.7,20.5,11.7,34.1c0,13.5-4,24.7-12.1,33.7
		c-8.1,9-18.8,13.5-32.3,13.5c-13,0-23.4-4.5-31.2-13.4c-7.8-8.9-11.7-20.4-11.7-34.3c0-9.7,1.8-17.9,5.3-24.7
		c3.5-6.8,8.3-12.2,14.5-16.4C460,321.7,467.8,319.6,477.2,319.6z M477.9,337.2c-5.1,0-8.9,2-11.5,5.9c-2.6,3.9-3.9,11.8-3.9,23.5
		c0,10.8,1.2,18.5,3.7,23.2s6.3,7,11.5,7c4.6,0,8.3-2,11.1-6c2.8-4,4.2-11.6,4.2-22.9c0-12-1.2-20.1-3.7-24.4
		C486.8,339.4,483,337.2,477.9,337.2z"/>
	<path class="st0" d="M618.6,378.5c-1,10.8-5.3,19.5-12.8,26.2c-7.5,6.7-17.2,10-29,10c-12.9,0-23.4-4.3-31.5-12.8
		c-8.1-8.5-12.1-19.9-12.1-34.2s4.1-25.8,12.4-34.7c8.3-8.9,19.3-13.3,33.2-13.3c11.1,0,20.4,3.3,27.7,10
		c7.3,6.7,11.4,15.1,12.1,25.1l-25.1,1.4c-0.8-11-5.6-16.4-14.3-16.4c-10.7,0-16,8.7-16,26.2c0,11.6,1.5,19,4.5,22.1
		c3,3.1,6.6,4.7,10.9,4.7c8.3,0,13.3-5.3,14.9-15.8L618.6,378.5z"/>
	<path class="st0" d="M691.7,352.8l31.4,59.9h-28.3L673.7,372L660,386.5v26.2H633v-91.2H660v22.8c0,3.7-0.1,9-0.4,16.1
		c2.1-3.1,4.7-6.2,7.7-9.4l27.6-29.5h24.9L691.7,352.8z"/>
	<path class="st0" d="M811.2,412.7h-26.1c-0.8-3.6-1.3-8.4-1.3-14.3c-4.6,6.5-9.1,10.8-13.7,13c-4.5,2.1-9.7,3.2-15.5,3.2
		c-8.5,0-15.4-2.3-20.7-7c-5.3-4.6-7.9-10.9-7.9-18.7c0-5.7,1.5-11,4.6-15.8c3.1-4.8,8-8.6,14.8-11.3c6.8-2.7,19.2-4.8,37.2-6.1
		v-5.2c0-8.9-4.4-13.3-13.2-13.3c-9.4,0-14.7,4.4-15.8,13.3l-24.8-2.3c1.6-10.4,6.5-17.7,14.7-22c8.2-4.3,17.5-6.5,27.8-6.5
		c6.2,0,12,0.7,17.5,2.2c5.5,1.4,9.8,3.6,12.8,6.5c3.1,2.9,5.1,5.9,6.2,9.2c1.1,3.2,1.6,8.8,1.6,16.8v41.4
		C809.6,403.6,810.1,409.3,811.2,412.7z M782.6,369c-18.8,1.9-28.2,7.6-28.2,17.1c0,3.2,1,5.9,3,8.3c2,2.3,4.8,3.5,8.5,3.5
		c4.7,0,8.7-2,11.9-5.9c3.2-3.9,4.8-8.8,4.8-14.6V369z"/>
	<path class="st0" d="M878,412.7v-91.2h78.3v91.2h-26.9v-72.9h-24.5v72.9H878z"/>
	<path class="st0" d="M965.3,412.7l30.5-91.2h30l27.5,91.2h-27.8l-18.1-66.8l-21.9,66.8H965.3z"/>
	<path class="st0" d="M1142.4,412.7h-26.1c-0.8-3.6-1.3-8.4-1.3-14.3c-4.6,6.5-9.1,10.8-13.7,13c-4.5,2.1-9.7,3.2-15.5,3.2
		c-8.5,0-15.4-2.3-20.7-7c-5.3-4.6-7.9-10.9-7.9-18.7c0-5.7,1.5-11,4.6-15.8c3.1-4.8,8-8.6,14.8-11.3c6.8-2.7,19.2-4.8,37.2-6.1
		v-5.2c0-8.9-4.4-13.3-13.2-13.3c-9.4,0-14.7,4.4-15.8,13.3l-24.8-2.3c1.6-10.4,6.5-17.7,14.7-22c8.2-4.3,17.5-6.5,27.8-6.5
		c6.2,0,12,0.7,17.5,2.2c5.5,1.4,9.8,3.6,12.8,6.5c3.1,2.9,5.1,5.9,6.2,9.2c1.1,3.2,1.6,8.8,1.6,16.8v41.4
		C1140.8,403.6,1141.3,409.3,1142.4,412.7z M1113.9,369c-18.8,1.9-28.2,7.6-28.2,17.1c0,3.2,1,5.9,3,8.3c2,2.3,4.8,3.5,8.5,3.5
		c4.7,0,8.7-2,11.9-5.9c3.2-3.9,4.8-8.8,4.8-14.6V369z"/>
	<path class="st0" d="M1163,412.7v-91.2h26.9v32.9h27.9v-32.9h26.9v91.2h-26.9V374h-27.9v38.8H1163z"/>
	<path class="st0" d="M1304.8,319.6c13.9,0,24.7,4.5,32.5,13.6c7.8,9.1,11.7,20.5,11.7,34.1c0,13.5-4,24.7-12.1,33.7
		c-8.1,9-18.8,13.5-32.3,13.5c-13,0-23.4-4.5-31.2-13.4c-7.8-8.9-11.7-20.4-11.7-34.3c0-9.7,1.8-17.9,5.3-24.7
		c3.5-6.8,8.3-12.2,14.5-16.4C1287.7,321.7,1295.4,319.6,1304.8,319.6z M1305.5,337.2c-5.1,0-8.9,2-11.5,5.9
		c-2.6,3.9-3.9,11.8-3.9,23.5c0,10.8,1.2,18.5,3.7,23.2c2.5,4.7,6.3,7,11.5,7c4.6,0,8.3-2,11.1-6c2.8-4,4.2-11.6,4.2-22.9
		c0-12-1.2-20.1-3.7-24.4C1314.4,339.4,1310.6,337.2,1305.5,337.2z"/>
	<path class="st0" d="M1366,412.7v-91.2h52.2c6.1,0,11.2,0.7,15.2,2c4,1.3,7.4,3.9,10.1,7.7c2.7,3.8,4.1,8.2,4.1,13.2
		c0,10.5-6.6,17.4-19.7,20.5c15.1,3.3,22.7,11,22.7,23.1c0,7.7-2.6,13.7-7.9,18.1c-5.3,4.4-12.7,6.6-22.3,6.6H1366z M1392.9,358.6
		h19.1c6.9,0,10.3-3.3,10.3-9.8c0-6.7-3.4-10-10.3-10h-19.1V358.6z M1392.9,394.7h18.8c4.3,0,7.3-0.9,9.2-2.6
		c1.8-1.8,2.8-4.7,2.8-8.8c0-3.4-0.8-6.1-2.3-8.3c-1.5-2.1-4.7-3.2-9.6-3.2h-18.8V394.7z"/>
</g>
</svg>
