<?xml version="1.0" encoding="utf-8"?>
<!-- Generator: Adobe Illustrator 25.0.1, SVG Export Plug-In . SVG Version: 6.00 Build 0)  -->
<svg version="1.1" id="Слой_1" xmlns="http://www.w3.org/2000/svg" xmlns:xlink="http://www.w3.org/1999/xlink" x="0px" y="0px"
	 viewBox="0 0 1768 728" style="enable-background:new 0 0 1768 728;" xml:space="preserve">
<style type="text/css">
	.st0{fill:#38824B;}
</style>
<g>
	<path class="st0" d="M509,289.4l-33.7,57.3l38.1,66H480L455.2,368l-24.8,44.7h-27.4l38.2-65.7l-33.9-57.6h33.6l20,37.4l21-37.4H509
		z"/>
	<path class="st0" d="M524.9,443.5v-122h24.8v13.4c4.6-10.2,12.6-15.3,24-15.3c9.9,0,18,4,24.3,11.9c6.3,7.9,9.4,19.4,9.4,34.6
		c0,16.1-3.2,28.2-9.5,36.4c-6.4,8.2-14.6,12.2-24.8,12.2c-10.3,0-17.6-4-22-12v40.9H524.9z M551,372.8c0,6.4,0.4,10.9,1.2,13.4
		c0.8,2.5,2.4,4.7,5,6.6s5.3,2.9,8.2,2.9c3.7,0,7-1.9,9.8-5.6s4.3-12.1,4.3-24.9c0-18-4.8-27-14.3-27c-3.6,0-6.9,1.6-9.8,4.8
		c-3,3.2-4.4,8.6-4.4,16.3V372.8z"/>
	<path class="st0" d="M704.3,412.7h-26.1c-0.8-3.6-1.3-8.4-1.3-14.3c-4.6,6.5-9.1,10.8-13.7,13c-4.5,2.1-9.7,3.2-15.5,3.2
		c-8.5,0-15.4-2.3-20.7-7c-5.3-4.6-7.9-10.9-7.9-18.7c0-5.7,1.5-11,4.6-15.8c3.1-4.8,8-8.6,14.8-11.3c6.8-2.7,19.2-4.8,37.2-6.1
		v-5.2c0-8.9-4.4-13.3-13.2-13.3c-9.4,0-14.7,4.4-15.8,13.3l-24.8-2.3c1.6-10.4,6.5-17.7,14.7-22c8.2-4.3,17.5-6.5,27.8-6.5
		c6.2,0,12,0.7,17.5,2.2c5.5,1.4,9.8,3.6,12.8,6.5s5.1,5.9,6.2,9.2c1.1,3.2,1.6,8.8,1.6,16.8v41.4
		C702.7,403.6,703.2,409.3,704.3,412.7z M675.7,369c-18.8,1.9-28.2,7.6-28.2,17.1c0,3.2,1,5.9,3,8.3c2,2.3,4.8,3.5,8.5,3.5
		c4.7,0,8.7-2,11.9-5.9c3.2-3.9,4.8-8.8,4.8-14.6V369z"/>
	<path class="st0" d="M724.9,412.7v-91.2h26.9v32.9h27.9v-32.9h26.9v91.2h-26.9V374h-27.9v38.8H724.9z"/>
	<path class="st0" d="M855.8,403.2v9.5h-26.9v-91.2h26.9v34.7c0,6.1-0.2,13-0.7,20.5c4.6-7.8,8.6-14.1,12-18.8l17.8-24.7v-11.7h26.9
		v91.2h-26.9v-32.5c0-7.5,0.3-15.1,0.8-22.9c-3.2,7.7-7,14.5-11.3,20.3L855.8,403.2z"/>
	<path class="st0" d="M920.7,412.7l30.5-91.2h30l27.5,91.2h-27.8l-18.1-66.8l-21.9,66.8H920.7z"/>
	<path class="st0" d="M1045.2,403.2v9.5h-26.9v-91.2h26.9v34.7c0,6.1-0.2,13-0.7,20.5c4.6-7.8,8.6-14.1,12-18.8l17.8-24.7v-11.7
		h26.9v91.2h-26.9v-32.5c0-7.5,0.3-15.1,0.8-22.9c-3.2,7.7-7,14.5-11.3,20.3L1045.2,403.2z"/>
	<path class="st0" d="M1124.1,412.7v-91.2h26.9v71.6h24.1v-71.6h26.9v71.6h24.2v-71.6h26.9v71.6h14.1v40.6h-16.7l-2.7-21H1124.1z"/>
	<path class="st0" d="M1359.3,371.6h-58.7c-0.1,1.6-0.1,3-0.1,4.2c0,6.5,1.7,11.4,5.2,14.7c3.5,3.3,7.6,5,12.4,5
		c9,0,14.4-4.8,16.2-14.4l24.4,1.8c-6.8,21.1-20.6,31.6-41.5,31.6c-9.1,0-16.8-1.8-23.2-5.5c-6.4-3.6-11.6-9-15.7-15.9
		c-4.1-7-6.2-15.4-6.2-25.1c0-14.5,4.1-26.2,12.4-35.1c8.3-8.9,18.9-13.4,31.9-13.4c11.7,0,21.8,4.1,30.2,12.4
		C1355.1,340.3,1359.3,353.5,1359.3,371.6z M1300.5,356h32.4c-0.8-12.5-6-18.8-15.4-18.8C1307.3,337.2,1301.7,343.5,1300.5,356z"/>
</g>
</svg>
