<?xml version="1.0" encoding="utf-8"?>
<!-- Generator: Adobe Illustrator 25.0.1, SVG Export Plug-In . SVG Version: 6.00 Build 0)  -->
<svg version="1.1" id="Слой_1" xmlns="http://www.w3.org/2000/svg" xmlns:xlink="http://www.w3.org/1999/xlink" x="0px" y="0px"
	 viewBox="0 0 1768 728" style="enable-background:new 0 0 1768 728;" xml:space="preserve">
<style type="text/css">
	.st0{fill:#A41A17;}
</style>
<g>
	<path class="st0" d="M66.9,289.4h57.5c10.3,0,18,1.3,23.2,3.8c5.2,2.5,9.5,6.1,12.8,10.8c3.4,4.7,5.1,10.4,5.1,17.2
		c0,13.7-7.4,22.8-22.2,27.3c8.6,1.9,15,5.8,19.2,11.5c4.3,5.7,6.4,12,6.4,18.7c0,9.2-3.5,17.2-10.5,23.9
		c-7,6.7-18.3,10.1-34.1,10.1H66.9V289.4z M95.7,311.2v27h21.9c8,0,13.1-1.6,15.1-4.7c2.1-3.2,3.1-6.2,3.1-9.1
		c0-3.1-0.9-5.8-2.6-8.1c-1.7-2.3-3.6-3.7-5.6-4.2c-2-0.6-6.1-0.9-12.1-0.9H95.7z M95.7,360.2v29.7h22.2c7.6,0,12.9-1.3,16-4
		c3.1-2.6,4.7-6.4,4.7-11.1c0-4-1.5-7.4-4.5-10.3c-3-2.9-8-4.3-15-4.3H95.7z"/>
	<path class="st0" d="M213.1,403.2v9.5h-26.9v-91.2h26.9v34.7c0,6.1-0.2,13-0.7,20.5c4.6-7.8,8.6-14.1,12-18.8l17.8-24.7v-11.7h26.9
		v91.2h-26.9v-32.5c0-7.5,0.3-15.1,0.8-22.9c-3.2,7.7-7,14.5-11.3,20.3L213.1,403.2z"/>
	<path class="st0" d="M289.8,393.8l21-72.3h37.8l17.1,72.3h11.1v39.9h-16.7l-2.8-21h-59.3l-2.7,21h-16.6v-39.9H289.8z M310,393.8
		h28.4L328,339.8h-3.6L310,393.8z"/>
	<path class="st0" d="M468.3,371.6h-58.7c-0.1,1.6-0.1,3-0.1,4.2c0,6.5,1.7,11.4,5.2,14.7c3.5,3.3,7.6,5,12.4,5
		c9,0,14.4-4.8,16.2-14.4l24.4,1.8c-6.8,21.1-20.6,31.6-41.5,31.6c-9.1,0-16.8-1.8-23.2-5.5c-6.4-3.6-11.6-9-15.7-15.9
		c-4.1-7-6.2-15.4-6.2-25.1c0-14.5,4.1-26.2,12.4-35.1c8.3-8.9,18.9-13.4,31.9-13.4c11.7,0,21.8,4.1,30.2,12.4
		C464.1,340.3,468.3,353.5,468.3,371.6z M409.5,356H442c-0.8-12.5-6-18.8-15.4-18.8C416.4,337.2,410.7,343.5,409.5,356z"/>
	<path class="st0" d="M523.1,319.6c13.9,0,24.7,4.5,32.5,13.6c7.8,9.1,11.7,20.5,11.7,34.1c0,13.5-4,24.7-12.1,33.7
		c-8.1,9-18.8,13.5-32.3,13.5c-13,0-23.4-4.5-31.2-13.4c-7.8-8.9-11.7-20.4-11.7-34.3c0-9.7,1.8-17.9,5.3-24.7
		c3.5-6.8,8.3-12.2,14.5-16.4C506,321.7,513.7,319.6,523.1,319.6z M523.8,337.2c-5.1,0-8.9,2-11.5,5.9c-2.6,3.9-3.9,11.8-3.9,23.5
		c0,10.8,1.2,18.5,3.7,23.2s6.3,7,11.5,7c4.6,0,8.3-2,11.1-6c2.8-4,4.2-11.6,4.2-22.9c0-12-1.2-20.1-3.7-24.4
		C532.7,339.4,529,337.2,523.8,337.2z"/>
	<path class="st0" d="M643,352.8l31.4,59.9h-28.3L625,372l-13.7,14.5v26.2h-26.9v-91.2h26.9v22.8c0,3.7-0.1,9-0.4,16.1
		c2.1-3.1,4.7-6.2,7.7-9.4l27.6-29.5H671L643,352.8z"/>
	<path class="st0" d="M718.9,319.6c13.9,0,24.7,4.5,32.5,13.6c7.8,9.1,11.7,20.5,11.7,34.1c0,13.5-4,24.7-12.1,33.7
		c-8.1,9-18.8,13.5-32.3,13.5c-13,0-23.4-4.5-31.2-13.4c-7.8-8.9-11.7-20.4-11.7-34.3c0-9.7,1.8-17.9,5.3-24.7
		c3.5-6.8,8.3-12.2,14.5-16.4C701.7,321.7,709.5,319.6,718.9,319.6z M719.6,337.2c-5.1,0-8.9,2-11.5,5.9c-2.6,3.9-3.9,11.8-3.9,23.5
		c0,10.8,1.2,18.5,3.7,23.2c2.5,4.7,6.3,7,11.5,7c4.6,0,8.3-2,11.1-6c2.8-4,4.2-11.6,4.2-22.9c0-12-1.2-20.1-3.7-24.4
		C728.5,339.4,724.7,337.2,719.6,337.2z"/>
	<path class="st0" d="M780.1,412.7v-91.2H807v32.9h27.9v-32.9h26.9v91.2h-26.9V374H807v38.8H780.1z"/>
	<path class="st0" d="M926.6,443.5v-29.9c-15.4-1.2-27.1-5.9-35.1-14.1c-8-8.2-12-18.9-12-31.9c0-13.7,4.4-24.7,13.2-32.9
		c8.8-8.2,20.1-12.9,33.9-14v-30.5h23.9v30.5c13.7,1.1,25,5.8,33.8,14c8.8,8.2,13.2,19.2,13.2,32.9c0,13.1-4,23.7-12,31.9
		c-8,8.2-19.7,12.9-35.1,14.1v29.9H926.6z M927.3,335.8c-13.9,3.6-20.8,13.9-20.8,31c0,17.2,6.9,27.5,20.8,30.9V335.8z M949.7,397.6
		c13.9-3.4,20.8-13.7,20.8-30.9c0-17.1-6.9-27.4-20.8-31V397.6z"/>
	<path class="st0" d="M1097.1,371.6h-58.7c-0.1,1.6-0.1,3-0.1,4.2c0,6.5,1.7,11.4,5.2,14.7c3.5,3.3,7.6,5,12.4,5
		c9,0,14.4-4.8,16.2-14.4l24.4,1.8c-6.8,21.1-20.6,31.6-41.5,31.6c-9.1,0-16.8-1.8-23.2-5.5c-6.4-3.6-11.6-9-15.7-15.9
		c-4.1-7-6.2-15.4-6.2-25.1c0-14.5,4.1-26.2,12.4-35.1c8.3-8.9,18.9-13.4,31.9-13.4c11.7,0,21.8,4.1,30.2,12.4
		C1092.9,340.3,1097.1,353.5,1097.1,371.6z M1038.3,356h32.4c-0.8-12.5-6-18.8-15.4-18.8C1045.2,337.2,1039.5,343.5,1038.3,356z"/>
	<path class="st0" d="M1114.1,443.5v-122h24.8v13.4c4.6-10.2,12.6-15.3,24-15.3c9.9,0,18,4,24.3,11.9c6.3,7.9,9.4,19.4,9.4,34.6
		c0,16.1-3.2,28.2-9.5,36.4c-6.4,8.2-14.6,12.2-24.8,12.2c-10.3,0-17.6-4-22-12v40.9H1114.1z M1140.2,372.8c0,6.4,0.4,10.9,1.2,13.4
		c0.8,2.5,2.4,4.7,5,6.6s5.3,2.9,8.2,2.9c3.7,0,7-1.9,9.8-5.6s4.3-12.1,4.3-24.9c0-18-4.8-27-14.3-27c-3.6,0-6.9,1.6-9.8,4.8
		c-3,3.2-4.4,8.6-4.4,16.3V372.8z"/>
	<path class="st0" d="M1295.9,371.6h-58.7c-0.1,1.6-0.1,3-0.1,4.2c0,6.5,1.7,11.4,5.2,14.7c3.5,3.3,7.6,5,12.4,5
		c9,0,14.4-4.8,16.2-14.4l24.4,1.8c-6.8,21.1-20.6,31.6-41.5,31.6c-9.1,0-16.8-1.8-23.2-5.5c-6.4-3.6-11.6-9-15.7-15.9
		c-4.1-7-6.2-15.4-6.2-25.1c0-14.5,4.1-26.2,12.4-35.1c8.3-8.9,18.9-13.4,31.9-13.4c11.7,0,21.8,4.1,30.2,12.4
		C1291.7,340.3,1295.9,353.5,1295.9,371.6z M1237.1,356h32.4c-0.8-12.5-6-18.8-15.4-18.8C1243.9,337.2,1238.3,343.5,1237.1,356z"/>
	<path class="st0" d="M1312.9,412.7v-91.2h26.9v32.9h27.9v-32.9h26.9v91.2h-26.9V374h-27.9v38.8H1312.9z"/>
	<path class="st0" d="M1416.8,412.7v-91.2h26.9v71.6h26.2v-71.6h26.9v71.6h13.5v40.6h-16.7l-2.7-21H1416.8z"/>
	<path class="st0" d="M1547.3,403.2v9.5h-26.9v-91.2h26.9v34.7c0,6.1-0.2,13-0.7,20.5c4.6-7.8,8.6-14.1,12-18.8l17.8-24.7v-11.7
		h26.9v91.2h-26.9v-32.5c0-7.5,0.3-15.1,0.8-22.9c-3.2,7.7-7,14.5-11.3,20.3L1547.3,403.2z"/>
	<path class="st0" d="M1675.4,412.7v-35h-17.9l-15.5,35h-25.4l20.8-40.6c-10.6-4.1-15.9-11.6-15.9-22.5c0-8.9,2.7-15.8,8.2-20.8
		c5.5-4.9,12.9-7.4,22.2-7.4h50.3v91.2H1675.4z M1676,360.2v-21.4h-17.8c-7.3,0-11,3.8-11,11.4c0,6.7,3.5,10,10.5,10H1676z"/>
</g>
</svg>
