<?xml version="1.0" encoding="utf-8"?>
<!-- Generator: Adobe Illustrator 25.0.1, SVG Export Plug-In . SVG Version: 6.00 Build 0)  -->
<svg version="1.1" id="Слой_1" xmlns="http://www.w3.org/2000/svg" xmlns:xlink="http://www.w3.org/1999/xlink" x="0px" y="0px"
	 viewBox="0 0 1920 1080" style="enable-background:new 0 0 1920 1080;" xml:space="preserve">
<style type="text/css">
	.st0{fill:#B3B3B3;}
</style>
<g>
	<g>
		<path class="st0" d="M1923,1203H0V-0.3h1923L1923,1203L1923,1203z M2.5,1200.5h1918V2.2H2.5V1200.5z"/>
	</g>
	<g>
		<rect x="1.2" y="1140.5" class="st0" width="1920.5" height="2.5"/>
	</g>
	<g>
		<rect x="1.2" y="1080.4" class="st0" width="1920.5" height="2.5"/>
	</g>
	<g>
		<rect x="1.2" y="1020.4" class="st0" width="1920.5" height="2.5"/>
	</g>
	<g>
		<rect x="1.2" y="960.4" class="st0" width="1920.5" height="2.5"/>
	</g>
	<g>
		<rect x="1.2" y="900.3" class="st0" width="1920.5" height="2.5"/>
	</g>
	<g>
		<rect x="1.2" y="840.3" class="st0" width="1920.5" height="2.5"/>
	</g>
	<g>
		<rect x="1.2" y="780.2" class="st0" width="1920.5" height="2.5"/>
	</g>
	<g>
		<rect x="1.2" y="720.2" class="st0" width="1920.5" height="2.5"/>
	</g>
	<g>
		<rect x="1.2" y="660.2" class="st0" width="1920.5" height="2.5"/>
	</g>
	<g>
		<rect x="1.2" y="600.1" class="st0" width="1920.5" height="2.5"/>
	</g>
	<g>
		<rect x="1.2" y="540.1" class="st0" width="1920.5" height="2.5"/>
	</g>
	<g>
		<rect x="1.2" y="480" class="st0" width="1920.5" height="2.5"/>
	</g>
	<g>
		<rect x="1.2" y="420" class="st0" width="1920.5" height="2.5"/>
	</g>
	<g>
		<rect x="1.2" y="360" class="st0" width="1920.5" height="2.5"/>
	</g>
	<g>
		<rect x="1.2" y="299.9" class="st0" width="1920.5" height="2.5"/>
	</g>
	<g>
		<rect x="1.2" y="239.9" class="st0" width="1920.5" height="2.5"/>
	</g>
	<g>
		<rect x="1.2" y="179.9" class="st0" width="1920.5" height="2.5"/>
	</g>
	<g>
		<rect x="1.2" y="119.8" class="st0" width="1920.5" height="2.5"/>
	</g>
	<g>
		<rect x="1.2" y="59.8" class="st0" width="1920.5" height="2.5"/>
	</g>
	<g>
		<rect x="1862.3" y="1" class="st0" width="2.5" height="1200.8"/>
	</g>
	<g>
		<rect x="1804.1" y="1" class="st0" width="2.5" height="1200.8"/>
	</g>
	<g>
		<rect x="1745.9" y="1" class="st0" width="2.5" height="1200.8"/>
	</g>
	<g>
		<rect x="1687.7" y="1" class="st0" width="2.5" height="1200.8"/>
	</g>
	<g>
		<rect x="1629.5" y="1" class="st0" width="2.5" height="1200.8"/>
	</g>
	<g>
		<rect x="1571.3" y="1" class="st0" width="2.5" height="1200.8"/>
	</g>
	<g>
		<rect x="1513.1" y="1" class="st0" width="2.5" height="1200.8"/>
	</g>
	<g>
		<rect x="1454.9" y="1" class="st0" width="2.5" height="1200.8"/>
	</g>
	<g>
		<rect x="1396.7" y="1" class="st0" width="2.5" height="1200.8"/>
	</g>
	<g>
		<rect x="1338.5" y="1" class="st0" width="2.5" height="1200.8"/>
	</g>
	<g>
		<rect x="1280.3" y="1" class="st0" width="2.5" height="1200.8"/>
	</g>
	<g>
		<rect x="1222.1" y="1" class="st0" width="2.5" height="1200.8"/>
	</g>
	<g>
		<rect x="1163.9" y="1" class="st0" width="2.5" height="1200.8"/>
	</g>
	<g>
		<rect x="1105.8" y="1" class="st0" width="2.5" height="1200.8"/>
	</g>
	<g>
		<rect x="1047.6" y="1" class="st0" width="2.5" height="1200.8"/>
	</g>
	<g>
		<rect x="989.4" y="1" class="st0" width="2.5" height="1200.8"/>
	</g>
	<g>
		<rect x="931.2" y="1" class="st0" width="2.5" height="1200.8"/>
	</g>
	<g>
		<rect x="873" y="1" class="st0" width="2.5" height="1200.8"/>
	</g>
	<g>
		<rect x="814.8" y="1" class="st0" width="2.5" height="1200.8"/>
	</g>
	<g>
		<rect x="756.6" y="1" class="st0" width="2.5" height="1200.8"/>
	</g>
	<g>
		<rect x="698.4" y="1" class="st0" width="2.5" height="1200.8"/>
	</g>
	<g>
		<rect x="640.2" y="1" class="st0" width="2.5" height="1200.8"/>
	</g>
	<g>
		<rect x="582" y="1" class="st0" width="2.5" height="1200.8"/>
	</g>
	<g>
		<rect x="523.8" y="1" class="st0" width="2.5" height="1200.8"/>
	</g>
	<g>
		<rect x="465.6" y="1" class="st0" width="2.5" height="1200.8"/>
	</g>
	<g>
		<rect x="407.4" y="1" class="st0" width="2.5" height="1200.8"/>
	</g>
	<g>
		<rect x="349.2" y="1" class="st0" width="2.5" height="1200.8"/>
	</g>
	<g>
		<rect x="291" y="1" class="st0" width="2.5" height="1200.8"/>
	</g>
	<g>
		<rect x="232.8" y="1" class="st0" width="2.5" height="1200.8"/>
	</g>
	<g>
		<rect x="174.6" y="1" class="st0" width="2.5" height="1200.8"/>
	</g>
	<g>
		<rect x="116.4" y="1" class="st0" width="2.5" height="1200.8"/>
	</g>
	<g>
		<rect x="58.2" y="1" class="st0" width="2.5" height="1200.8"/>
	</g>
</g>
</svg>
